<?xml version="1.0" standalone="no"?>
<!DOCTYPE svg PUBLIC "-//W3C//DTD SVG 20010904//EN"
 "http://www.w3.org/TR/2001/REC-SVG-20010904/DTD/svg10.dtd">
<svg version="1.0" xmlns="http://www.w3.org/2000/svg"
 width="713.000000pt" height="713.000000pt" viewBox="0 0 713.000000 713.000000"
 preserveAspectRatio="xMidYMid meet">

<g transform="translate(0.000000,713.000000) scale(0.100000,-0.100000)"
fill="#000000" stroke="none">
<path d="M2320 5058 c-5 -13 -21 -84 -34 -158 -14 -74 -66 -351 -116 -615 -50
-264 -108 -572 -130 -685 -60 -317 -68 -349 -95 -397 -15 -24 -112 -130 -216
-236 l-189 -192 -1 -320 c0 -176 -2 -329 -3 -341 -8 -69 8 -56 390 328 431
433 473 486 532 668 12 36 69 317 127 625 59 308 124 652 145 765 21 113 54
286 73 385 19 99 33 183 30 188 -2 4 -117 7 -254 7 -249 0 -249 0 -259 -22z"/>
<path d="M3329 5074 c-12 -4 -46 -167 -153 -737 -189 -1002 -204 -1074 -228
-1121 -11 -23 -109 -131 -219 -243 l-199 -201 0 -364 1 -363 375 380 c386 391
444 457 496 560 48 93 64 151 103 353 19 103 44 232 55 287 18 93 82 431 216
1143 31 162 53 296 51 299 -7 7 -478 14 -498 7z"/>
<path d="M4441 5050 c-89 -32 -165 -100 -206 -185 -24 -52 -34 -99 -149 -740
-36 -198 -126 -700 -201 -1115 -75 -415 -138 -770 -142 -787 l-5 -33 258 0
259 0 75 403 c41 221 99 539 130 707 l57 305 408 5 409 5 42 240 c24 132 43
246 43 253 1 9 -87 12 -405 12 l-406 0 5 28 c2 15 20 114 38 220 l33 192 407
0 407 0 6 28 c3 15 22 117 41 227 20 110 38 212 41 228 l6 27 -549 0 c-515 -1
-551 -2 -602 -20z"/>
</g>
</svg>
